<svg xmlns="http://www.w3.org/2000/svg" viewBox="0 0 62.39 31.1"><defs><style>.cls-1{fill:#4affff;}</style></defs><title>工作區域 15</title><g id="小icon"><rect class="cls-1" x="57.2" y="2.59" width="2.59" height="2.59" transform="translate(117 7.77) rotate(180)"/><rect class="cls-1" x="50.82" y="6.53" width="2.59" height="2.59" transform="translate(104.23 15.64) rotate(180)"/><rect class="cls-1" x="50.82" y="11.66" width="2.59" height="2.59" transform="translate(104.23 25.91) rotate(180)"/><rect class="cls-1" x="50.82" y="16.8" width="2.59" height="2.59" transform="translate(104.23 36.18) rotate(180)"/><rect class="cls-1" x="50.82" y="21.93" width="2.59" height="2.59" transform="translate(104.23 46.45) rotate(180)"/><rect class="cls-1" x="48.23" y="9.07" width="2.59" height="2.59" transform="translate(99.05 20.73) rotate(180)"/><rect class="cls-1" x="48.23" y="14.25" width="2.59" height="2.59" transform="translate(99.05 31.1) rotate(180)"/><rect class="cls-1" x="48.23" y="19.35" width="2.59" height="2.59" transform="translate(99.05 41.28) rotate(180)"/><rect class="cls-1" x="45.64" y="6.53" width="2.59" height="2.59" transform="translate(93.87 15.64) rotate(180)"/><rect class="cls-1" x="45.64" y="11.66" width="2.59" height="2.59" transform="translate(93.87 25.91) rotate(180)"/><rect class="cls-1" x="45.64" y="16.8" width="2.59" height="2.59" transform="translate(93.87 36.18) rotate(180)"/><rect class="cls-1" x="45.64" y="21.93" width="2.59" height="2.59" transform="translate(93.87 46.45) rotate(180)"/><rect class="cls-1" x="39.81" y="6.53" width="2.59" height="2.59" transform="translate(82.22 15.64) rotate(180)"/><rect class="cls-1" x="39.81" y="11.66" width="2.59" height="2.59" transform="translate(82.22 25.91) rotate(180)"/><rect class="cls-1" x="39.81" y="16.8" width="2.59" height="2.59" transform="translate(82.22 36.18) rotate(180)"/><rect class="cls-1" x="39.81" y="21.93" width="2.59" height="2.59" transform="translate(82.22 46.45) rotate(180)"/><rect class="cls-1" x="37.22" y="9.07" width="2.59" height="2.59" transform="translate(77.03 20.73) rotate(180)"/><rect class="cls-1" x="37.22" y="14.25" width="2.59" height="2.59" transform="translate(77.03 31.1) rotate(180)"/><rect class="cls-1" x="37.22" y="19.35" width="2.59" height="2.59" transform="translate(77.03 41.28) rotate(180)"/><rect class="cls-1" x="34.63" y="6.53" width="2.59" height="2.59" transform="translate(71.85 15.64) rotate(180)"/><rect class="cls-1" x="34.63" y="11.66" width="2.59" height="2.59" transform="translate(71.85 25.91) rotate(180)"/><rect class="cls-1" x="34.63" y="16.8" width="2.59" height="2.59" transform="translate(71.85 36.18) rotate(180)"/><rect class="cls-1" x="34.63" y="21.93" width="2.59" height="2.59" transform="translate(71.85 46.45) rotate(180)"/><rect class="cls-1" x="54.61" width="2.59" height="2.59" transform="translate(111.82 2.59) rotate(180)"/><rect class="cls-1" x="59.8" y="5.18" width="2.59" height="2.59" transform="translate(122.18 12.96) rotate(180)"/><rect class="cls-1" x="59.8" y="7.77" width="2.59" height="2.59" transform="translate(122.18 18.14) rotate(180)"/><rect class="cls-1" x="52.12" width="2.59" height="2.59" transform="translate(106.82 2.59) rotate(180)"/><rect class="cls-1" x="49.53" width="2.59" height="2.59" transform="translate(101.64 2.59) rotate(180)"/><rect class="cls-1" x="46.93" width="2.59" height="2.59" transform="translate(96.46 2.59) rotate(180)"/><rect class="cls-1" x="44.34" width="2.59" height="2.59" transform="translate(91.28 2.59) rotate(180)"/><rect class="cls-1" x="41.75" width="2.59" height="2.59" transform="translate(86.09 2.59) rotate(180)"/><rect class="cls-1" x="39.16" width="2.59" height="2.59" transform="translate(80.91 2.59) rotate(180)"/><rect class="cls-1" x="36.57" width="2.59" height="2.59" transform="translate(75.73 2.59) rotate(180)"/><rect class="cls-1" x="33.98" width="2.59" height="2.59" transform="translate(70.54 2.59) rotate(180)"/><rect class="cls-1" x="31.39" width="2.59" height="2.59" transform="translate(65.36 2.59) rotate(180)"/><rect class="cls-1" x="28.79" width="2.59" height="2.59" transform="translate(60.18 2.59) rotate(180)"/><rect class="cls-1" x="26.2" width="2.59" height="2.59" transform="translate(55 2.59) rotate(180)"/><rect class="cls-1" x="23.61" width="2.59" height="2.59" transform="translate(49.81 2.59) rotate(180)"/><rect class="cls-1" x="21.02" width="2.59" height="2.59" transform="translate(44.63 2.59) rotate(180)"/><rect class="cls-1" x="18.43" width="2.59" height="2.59" transform="translate(39.45 2.59) rotate(180)"/><rect class="cls-1" x="15.84" width="2.59" height="2.59" transform="translate(34.27 2.59) rotate(180)"/><rect class="cls-1" x="17.85" width="2.3" height="2.59" transform="translate(38.01 2.59) rotate(180)"/><rect class="cls-1" x="15.55" width="2.3" height="2.59" transform="translate(33.4 2.59) rotate(180)"/><rect class="cls-1" x="12.96" width="2.59" height="2.59" transform="translate(28.51 2.59) rotate(180)"/><rect class="cls-1" x="10.37" y="2.59" width="2.59" height="2.59" transform="translate(23.32 7.77) rotate(180)"/><rect class="cls-1" x="7.77" y="5.18" width="2.59" height="2.59" transform="translate(18.14 12.96) rotate(180)"/><rect class="cls-1" x="7.77" y="7.77" width="2.59" height="2.59" transform="translate(18.14 18.14) rotate(180)"/><rect class="cls-1" x="5.18" y="8.3" width="2.59" height="2.59" transform="translate(12.96 19.2) rotate(180)"/><rect class="cls-1" x="2.59" y="8.3" width="2.59" height="2.59" transform="translate(7.77 19.2) rotate(180)"/><rect class="cls-1" y="10.9" width="2.59" height="2.59" transform="translate(2.59 24.38) rotate(180)"/><rect class="cls-1" y="13.41" width="2.59" height="2.59" transform="translate(2.59 29.41) rotate(180)"/><rect class="cls-1" y="15.92" width="2.59" height="2.59" transform="translate(2.59 34.44) rotate(180)"/><rect class="cls-1" y="18.44" width="2.59" height="2.59" transform="translate(2.59 39.47) rotate(180)"/><rect class="cls-1" x="2.59" y="21.03" width="2.59" height="2.59" transform="translate(7.77 44.65) rotate(180)"/><rect class="cls-1" x="5.18" y="21.03" width="2.59" height="2.59" transform="translate(12.96 44.65) rotate(180)"/><rect class="cls-1" x="7.77" y="10.37" width="2.59" height="2.59" transform="translate(18.14 23.32) rotate(180)"/><rect class="cls-1" x="7.77" y="12.96" width="2.59" height="2.59" transform="translate(18.14 28.51) rotate(180)"/><rect class="cls-1" x="7.77" y="15.55" width="2.59" height="2.59" transform="translate(18.14 33.69) rotate(180)"/><rect class="cls-1" x="7.77" y="18.14" width="2.59" height="2.59" transform="translate(18.14 38.87) rotate(180)"/><rect class="cls-1" x="7.77" y="20.73" width="2.59" height="2.59" transform="translate(18.14 44.05) rotate(180)"/><rect class="cls-1" x="7.77" y="23.32" width="2.59" height="2.59" transform="translate(18.14 49.24) rotate(180)"/><rect class="cls-1" x="10.37" y="25.91" width="2.59" height="2.59" transform="translate(23.32 54.42) rotate(180)"/><rect class="cls-1" x="12.96" y="28.51" width="41.66" height="2.59" transform="translate(67.57 59.6) rotate(180)"/><rect class="cls-1" x="59.8" y="10.37" width="2.59" height="2.59" transform="translate(122.18 23.32) rotate(180)"/><rect class="cls-1" x="59.8" y="12.96" width="2.59" height="2.59" transform="translate(122.18 28.51) rotate(180)"/><rect class="cls-1" x="59.8" y="15.55" width="2.59" height="2.59" transform="translate(122.18 33.69) rotate(180)"/><rect class="cls-1" x="59.8" y="18.14" width="2.59" height="2.59" transform="translate(122.18 38.87) rotate(180)"/><rect class="cls-1" x="59.8" y="20.73" width="2.59" height="2.59" transform="translate(122.18 44.05) rotate(180)"/><rect class="cls-1" x="59.8" y="23.32" width="2.59" height="2.59" transform="translate(122.18 49.24) rotate(180)"/><rect class="cls-1" x="57.2" y="25.91" width="2.59" height="2.59" transform="translate(117 54.42) rotate(180)"/><rect class="cls-1" x="54.61" y="28.51" width="2.59" height="2.59" transform="translate(111.82 59.6) rotate(180)"/></g></svg>