<svg id="圖層_1" data-name="圖層 1" xmlns="http://www.w3.org/2000/svg" viewBox="0 0 143.7 143.7"><defs></defs><title>btn-art-2</title><rect class="cls-1" x="69.1" y="82.92" width="4.37" height="4.4"/><rect class="cls-1" x="64.73" y="87.32" width="4.37" height="4.4"/><rect class="cls-1" x="69.12" y="91.71" width="4.37" height="4.4"/><rect class="cls-1" x="49" y="98.03" width="45.65" height="4.4"/><rect class="cls-1" x="73.5" y="87.33" width="4.37" height="4.4"/><polygon class="cls-1" points="58.85 50.52 58.85 54.92 58.85 59.32 58.85 63.73 63.22 63.73 63.22 59.32 63.22 54.92 63.22 50.52 63.22 46.11 58.85 46.11 58.85 50.52"/><rect class="cls-1" x="66.24" y="49.08" width="4.37" height="4.4"/><rect class="cls-1" x="66.24" y="56.4" width="11.48" height="4.4"/><rect class="cls-1" x="73.35" y="49.08" width="4.37" height="4.4"/><polygon class="cls-1" points="80.73 41.73 76.36 41.73 71.98 41.73 67.61 41.73 63.24 41.73 63.24 46.13 67.61 46.13 71.98 46.13 76.36 46.13 80.73 46.13 80.73 50.52 80.73 54.92 80.73 59.32 80.73 63.73 85.1 63.73 85.1 59.32 85.1 54.92 85.1 50.52 85.1 46.11 80.73 46.11 80.73 41.73"/><rect class="cls-1" x="58.84" y="68.12" width="4.37" height="4.4"/><rect class="cls-1" x="54.46" y="72.51" width="4.37" height="4.4"/><rect class="cls-1" x="85.23" y="72.62" width="4.37" height="4.4"/><polygon class="cls-1" points="71.98 63.73 67.61 63.73 63.24 63.73 63.24 68.13 67.61 68.13 71.98 68.13 76.36 68.13 80.73 68.13 80.73 72.52 85.1 72.52 85.1 68.12 80.73 68.12 80.73 63.73 76.36 63.73 71.98 63.73"/><polygon class="cls-1" points="69.3 28.47 73.67 28.47 73.71 28.47 78.12 28.47 78.12 24.02 73.71 24.02 73.67 24.02 69.3 24.02 69.26 24.02 64.85 24.02 64.85 28.47 69.26 28.47 69.3 28.47"/><path class="cls-1" d="M94.65,16.63H49V20.9H44.65V98H49V81H94.65V98h4.4V20.9h-4.4ZM49,77.11V34.85H94.65V77.11Zm45.65-46.7V31H49v-10H94.65Z"/><path class="cls-1" d="M34.91,128.59v-1.25h3.73v-5H37.4v-1.25h3.72v6.25H39.88v1.25Zm3.73-8.75v-1.25h2.48v1.25Z"/><path class="cls-1" d="M44.46,127.34v-1.25h2.48v-3.75H45.7v-1.25h3.73v5h2.48v1.25Zm2.48-7.5v-1.25h2.49v1.25Z"/><path class="cls-1" d="M54,127.34v-1.25H52.76v-3.75H54v-1.25h6.21v1.25h1.25v2.5H55.24v1.25h5v1.25Zm1.24-3.75H59v-1.25H55.24Z"/><path class="cls-1" d="M63.55,123.59v-1.25H71v1.25Z"/><path class="cls-1" d="M71.85,127.34v-8.75h2.48v2.5h5v1.25h1.24v5H78.06v-5H74.33v5Z"/><path class="cls-1" d="M82.64,127.34v-1.25H81.39v-5h2.49v5h3.73v-5h2.48v6.25Z"/><path class="cls-1" d="M92.18,127.34v-1.25H90.94v-1.25h1.24v-1.25h5v-1.25h-5v-1.25H98.4v1.25h1.24v5Zm1.25-1.25h3.73v-1.25H93.43Z"/><path class="cls-1" d="M101.73,127.34v-1.25h2.48v-3.75H103v-1.25h3.73v5h2.49v1.25Zm2.48-7.5v-1.25h2.49v1.25Z"/></svg>