<svg id="圖層_1" data-name="圖層 1" xmlns="http://www.w3.org/2000/svg" viewBox="0 0 143.16 143.16"><defs></defs><title>btn-about</title><rect class="cls-1" x="58.03" y="59.52" width="5.01" height="5.04"/><rect class="cls-1" x="80.67" y="79.24" width="5.01" height="5.04"/><rect class="cls-1" x="66.41" y="59.52" width="19.25" height="5.04"/><rect class="cls-1" x="58.03" y="69.59" width="27.63" height="5.04"/><rect class="cls-1" x="58.03" y="79.24" width="19.31" height="5.04"/><polygon class="cls-1" points="95.26 41.79 95.26 37.25 90.25 37.25 90.25 33.37 85.23 33.37 85.23 29.2 80.22 29.2 80.22 26.68 49.63 26.68 49.63 31.71 71.09 31.71 71.09 36.75 71.09 41.79 71.09 46.83 76.1 46.83 76.1 41.79 76.1 36.75 76.1 31.71 80.22 31.71 80.22 34.23 85.23 34.23 85.23 38.41 90.25 38.41 90.25 42.29 94.06 42.29 94.06 45.37 94.06 46.83 76.1 46.83 76.1 51.87 94.06 51.87 94.06 92.82 99.08 92.82 99.08 46.83 99.08 45.37 99.08 41.79 95.26 41.79"/><rect class="cls-1" x="49.63" y="92.82" width="44.43" height="5.04"/><rect class="cls-1" x="44.62" y="31.71" width="5.01" height="61.11"/><path class="cls-1" d="M49.23,127.34v-1.25H48v-1.25h1.25v-1.25h5v-1.25h-5v-1.25h6.21v1.25h1.25v5Zm1.24-1.25H54.2v-1.25H50.47Z"/><path class="cls-1" d="M58.77,127.34v-1.25H57.53v-7.5H60v2.5h5v1.25h1.24v3.75H65v1.25ZM60,126.09h3.72v-3.75H60Z"/><path class="cls-1" d="M68.32,127.34v-1.25H67.08v-3.75h1.24v-1.25h6.21v1.25h1.25v3.75H74.53v1.25Zm1.24-1.25h3.73v-3.75H69.56Z"/><path class="cls-1" d="M77.86,127.34v-1.25H76.62v-5h2.49v5h3.73v-5h2.48v6.25Z"/><path class="cls-1" d="M89.9,127.34v-5H87.41v-1.25H89.9v-2.5h2.48v2.5h2.49v1.25H92.38v5Z"/></svg>