<svg id="圖層_1" data-name="圖層 1" xmlns="http://www.w3.org/2000/svg" viewBox="0 0 143.7 143.7"><defs></defs><title>btn-team</title><polygon class="cls-1" points="63.19 29.63 76.02 29.63 76.02 24.86 63.19 24.86 63.12 24.86 51.27 24.86 51.27 29.63 63.12 29.63 63.19 29.63"/><polygon class="cls-1" points="51.27 59.84 62.95 59.84 62.95 61.53 62.95 66.3 67.69 66.3 67.69 61.53 67.69 54.04 67.69 40.87 62.95 40.87 62.95 45.47 57.45 45.47 57.45 48.63 62.95 48.63 62.95 54.04 62.95 55.07 51.27 55.07 51.27 59.84 46.52 59.84 46.52 64.61 51.27 64.61 51.27 59.84"/><rect class="cls-1" x="41.77" y="64.59" width="4.74" height="4.77"/><rect class="cls-1" x="57.44" y="36.22" width="3.76" height="3.78"/><polygon class="cls-1" points="51.27 42.8 51.27 29.63 46.52 29.63 46.52 42.8 46.52 50.3 46.52 55.07 51.27 55.07 51.27 50.3 51.27 42.8"/><polygon class="cls-1" points="67.69 36.1 67.69 40.87 79.55 40.87 79.62 40.87 92.44 40.87 92.44 36.1 80.76 36.1 80.76 29.63 76.02 29.63 76.02 36.1 67.69 36.1"/><polygon class="cls-1" points="79.55 66.3 67.69 66.3 67.69 71.07 62.95 71.07 62.95 75.84 67.69 75.84 67.69 71.07 79.55 71.07 79.62 71.07 92.44 71.07 92.44 75.84 97.19 75.84 97.19 71.07 92.44 71.07 92.44 66.3 79.62 66.3 79.55 66.3"/><polygon class="cls-1" points="58.2 94.89 58.2 88.24 58.2 83.47 58.2 80.61 62.94 80.61 62.94 75.84 58.2 75.84 58.2 80.56 53.45 80.56 53.45 83.47 51.12 83.47 46.44 83.47 41.77 83.47 41.77 74.13 41.77 69.36 37.03 69.36 37.03 74.13 37.03 83.57 41.77 83.57 41.77 88.24 46.44 88.24 51.12 88.24 53.45 88.24 53.45 94.89 58.2 94.89"/><rect class="cls-1" x="97.19" y="75.84" width="4.74" height="4.77"/><rect class="cls-1" x="101.93" y="80.61" width="4.74" height="14.29"/><polygon class="cls-1" points="74.86 94.9 72.42 94.9 67.68 94.9 62.94 94.9 58.2 94.9 58.2 99.67 62.94 99.67 67.68 99.67 72.42 99.67 74.86 99.67 87.76 99.67 101.93 99.67 101.93 94.9 87.76 94.9 74.86 94.9"/><rect class="cls-1" x="73.87" y="47.45" width="3.76" height="3.78"/><rect class="cls-1" x="73.87" y="56.7" width="12.94" height="3.16"/><rect class="cls-1" x="83.06" y="47.45" width="3.76" height="3.78"/><polygon class="cls-1" points="92.44 61.53 92.44 66.3 97.19 66.3 97.19 61.53 97.19 54.04 97.19 40.87 92.44 40.87 92.44 54.04 92.44 61.53"/><path class="cls-1" d="M56.49,127.34v-5H54v-1.25h2.49v-2.5H59v2.5h2.49v1.25H59v5Z"/><path class="cls-1" d="M63.55,127.34v-1.25H62.3v-3.75h1.25v-1.25h6.21v1.25H71v2.5H64.79v1.25h5v1.25Zm1.24-3.75h3.73v-1.25H64.79Z"/><path class="cls-1" d="M73.09,127.34v-1.25H71.85v-1.25h1.24v-1.25h5v-1.25h-5v-1.25h6.22v1.25h1.24v5Zm1.24-1.25h3.73v-1.25H74.33Z"/><path class="cls-1" d="M81.39,127.34v-6.25h7.46v1.25h1.24v5H87.61v-5H86.37v5H83.88v-5H82.64v5Z"/></svg>