<svg xmlns="http://www.w3.org/2000/svg" viewBox="0 0 118.68 118.68"><defs></defs><title>工作區域 46</title><g id="文字"><rect class="cls-1" x="63.69" y="11.49" width="3.15" height="3.15" transform="translate(-0.11 0.58) rotate(-0.51)"/><rect class="cls-1" x="60.57" y="14.67" width="3.15" height="3.15" transform="translate(-0.14 0.55) rotate(-0.51)"/><rect class="cls-1" x="60.6" y="17.82" width="3.15" height="3.15" transform="translate(-0.17 0.55) rotate(-0.51)"/><rect class="cls-1" x="63.78" y="20.94" width="3.15" height="3.15" transform="translate(-0.2 0.58) rotate(-0.51)"/><rect class="cls-1" x="60.66" y="24.12" width="3.15" height="3.15" transform="matrix(1, -0.01, 0.01, 1, -0.23, 0.55)"/><rect class="cls-1" x="60.68" y="27.26" width="3.15" height="3.15" transform="translate(-0.25 0.56) rotate(-0.51)"/><rect class="cls-1" x="63.86" y="30.39" width="3.15" height="3.15" transform="translate(-0.28 0.58) rotate(-0.51)"/><rect class="cls-1" x="60.74" y="33.56" width="3.15" height="3.15" transform="translate(-0.31 0.56) rotate(-0.51)"/><rect class="cls-1" x="60.77" y="36.71" width="3.15" height="3.15" transform="translate(-0.34 0.56) rotate(-0.51)"/><rect class="cls-1" x="57.65" y="39.89" width="3.15" height="3.15" transform="translate(-0.37 0.53) rotate(-0.51)"/><rect class="cls-1" x="57.68" y="43.04" width="3.15" height="3.15" transform="matrix(1, -0.01, 0.01, 1, -0.39, 0.53)"/><rect class="cls-1" x="57.7" y="46.19" width="3.15" height="3.15" transform="translate(-0.42 0.53) rotate(-0.51)"/><rect class="cls-1" x="60.88" y="49.31" width="3.15" height="3.15" transform="translate(-0.45 0.56) rotate(-0.51)"/><rect class="cls-1" x="54.58" y="49.37" width="3.15" height="3.15" transform="translate(-0.45 0.5) rotate(-0.51)"/><rect class="cls-1" x="51.46" y="52.54" width="3.15" height="3.15" transform="translate(-0.48 0.47) rotate(-0.51)"/><rect class="cls-1" x="48.34" y="55.81" width="3.15" height="3.15" transform="translate(-0.51 0.45) rotate(-0.51)"/><rect class="cls-1" x="45.22" y="58.9" width="3.15" height="3.15" transform="translate(-0.54 0.42) rotate(-0.51)"/><rect class="cls-1" x="42.1" y="62.08" width="3.15" height="3.15" transform="translate(-0.56 0.39) rotate(-0.51)"/><rect class="cls-1" x="38.95" y="62.1" width="3.15" height="3.15" transform="translate(112.21 40.06) rotate(104.23)"/><rect class="cls-1" x="35.83" y="65.28" width="3.15" height="3.15" transform="matrix(1, -0.01, 0.01, 1, -0.59, 0.34)"/><rect class="cls-1" x="32.82" y="68.46" width="3.15" height="3.15" transform="translate(-0.62 0.31) rotate(-0.51)"/><rect class="cls-1" x="29.7" y="71.64" width="3.15" height="3.15" transform="translate(-0.65 0.28) rotate(-0.51)"/><rect class="cls-1" x="29.73" y="74.79" width="3.15" height="3.15" transform="translate(-0.68 0.28) rotate(-0.51)"/><rect class="cls-1" x="32.9" y="77.91" width="3.15" height="3.15" transform="translate(-0.71 0.31) rotate(-0.51)"/><rect class="cls-1" x="35.97" y="81.03" width="3.15" height="3.15" transform="translate(-0.73 0.34) rotate(-0.51)"/><rect class="cls-1" x="39.11" y="81" width="3.15" height="3.15" transform="translate(-0.73 0.37) rotate(-0.51)"/><rect class="cls-1" x="42.24" y="77.82" width="3.15" height="3.15" transform="translate(-0.7 0.39) rotate(-0.51)"/><rect class="cls-1" x="45.44" y="77.8" width="3.15" height="3.15" transform="translate(-0.7 0.42) rotate(-0.51)"/><rect class="cls-1" x="48.51" y="74.79" width="3.15" height="3.15" transform="translate(-0.68 0.45) rotate(-0.51)"/><rect class="cls-1" x="51.66" y="74.77" width="3.15" height="3.15" transform="translate(-0.68 0.48) rotate(-0.51)"/><rect class="cls-1" x="64.06" y="52.43" width="3.15" height="3.15" transform="translate(-0.48 0.59) rotate(-0.51)"/><rect class="cls-1" x="60.94" y="55.7" width="3.15" height="3.15" transform="translate(-0.51 0.56) rotate(-0.51)"/><rect class="cls-1" x="60.96" y="58.76" width="3.15" height="3.15" transform="translate(-0.53 0.56) rotate(-0.51)"/><rect class="cls-1" x="57.84" y="61.94" width="3.15" height="3.15" transform="translate(-0.56 0.53) rotate(-0.51)"/><rect class="cls-1" x="57.87" y="65.09" width="3.15" height="3.15" transform="translate(-0.59 0.53) rotate(-0.51)"/><rect class="cls-1" x="61.05" y="68.29" width="3.15" height="3.15" transform="translate(-0.62 0.56) rotate(-0.51)"/><rect class="cls-1" x="57.93" y="71.38" width="3.15" height="3.15" transform="translate(-0.65 0.53) rotate(-0.51)"/><rect class="cls-1" x="54.81" y="74.56" width="3.15" height="3.15" transform="translate(-0.68 0.5) rotate(-0.51)"/><rect class="cls-1" x="54.83" y="77.71" width="3.15" height="3.15" transform="translate(-0.7 0.5) rotate(-0.51)"/><rect class="cls-1" x="57.98" y="77.68" width="3.15" height="3.15" transform="translate(-0.7 0.53) rotate(-0.51)"/><rect class="cls-1" x="61.1" y="74.51" width="3.15" height="3.15" transform="translate(-0.67 0.56) rotate(-0.51)"/><rect class="cls-1" x="64.25" y="74.48" width="3.15" height="3.15" transform="translate(-0.67 0.59) rotate(-0.51)"/><rect class="cls-1" x="67.38" y="71.3" width="3.15" height="3.15" transform="translate(-0.65 0.62) rotate(-0.51)"/><rect class="cls-1" x="70.5" y="68.12" width="3.15" height="3.15" transform="translate(-0.62 0.64) rotate(-0.51)"/><rect class="cls-1" x="73.62" y="64.95" width="3.15" height="3.15" transform="translate(-0.59 0.67) rotate(-0.51)"/><rect class="cls-1" x="73.59" y="61.8" width="3.15" height="3.15" transform="translate(-0.56 0.67) rotate(-0.51)"/><rect class="cls-1" x="76.71" y="58.62" width="3.15" height="3.15" transform="translate(-0.53 0.7) rotate(-0.51)"/><rect class="cls-1" x="76.68" y="55.47" width="3.15" height="3.15" transform="translate(-0.5 0.7) rotate(-0.51)"/><rect class="cls-1" x="73.51" y="52.44" width="3.15" height="3.15" transform="translate(-0.48 0.67) rotate(-0.51)"/><rect class="cls-1" x="70.33" y="49.23" width="3.15" height="3.15" transform="translate(-0.45 0.64) rotate(-0.51)"/><rect class="cls-1" x="67.18" y="49.25" width="3.15" height="3.15" transform="translate(-0.45 0.61) rotate(-0.51)"/><rect class="cls-1" x="64.03" y="49.28" width="3.15" height="3.15" transform="translate(-0.45 0.59) rotate(-0.51)"/><rect class="cls-1" x="54.47" y="36.77" width="3.15" height="3.15" transform="translate(-0.34 0.5) rotate(-0.51)"/><rect class="cls-1" x="51.32" y="36.8" width="3.15" height="3.15" transform="translate(-0.34 0.47) rotate(-0.51)"/><rect class="cls-1" x="48.17" y="36.83" width="3.15" height="3.15" transform="translate(-0.34 0.44) rotate(-0.51)"/><rect class="cls-1" x="45.05" y="40" width="3.15" height="3.15" transform="translate(-0.37 0.42) rotate(-0.51)"/><rect class="cls-1" x="41.93" y="43.18" width="3.15" height="3.15" transform="translate(-0.4 0.39) rotate(-0.51)"/><rect class="cls-1" x="45.11" y="46.39" width="3.15" height="3.15" transform="translate(-0.42 0.42) rotate(-0.51)"/><rect class="cls-1" x="48.23" y="43.12" width="3.15" height="3.15" transform="translate(-0.4 0.44) rotate(-0.51)"/><rect class="cls-1" x="51.38" y="43.1" width="3.15" height="3.15" transform="translate(-0.4 0.47) rotate(-0.51)"/><rect class="cls-1" x="54.53" y="43.07" width="3.15" height="3.15" transform="translate(-0.39 0.5) rotate(-0.51)"/><rect class="cls-1" x="66.87" y="14.61" width="3.15" height="3.15" transform="translate(-0.14 0.61) rotate(-0.51)"/><rect class="cls-1" x="70.05" y="17.73" width="3.15" height="3.15" transform="translate(-0.17 0.64) rotate(-0.51)"/><rect class="cls-1" x="73.23" y="20.85" width="3.15" height="3.15" transform="translate(-0.2 0.67) rotate(-0.51)"/><rect class="cls-1" x="73.25" y="24" width="3.15" height="3.15" transform="translate(-0.22 0.67) rotate(-0.51)"/><rect class="cls-1" x="73.28" y="27.15" width="3.15" height="3.15" transform="translate(-0.25 0.67) rotate(-0.51)"/><rect class="cls-1" x="73.31" y="30.3" width="3.15" height="3.15" transform="translate(-0.28 0.67) rotate(-0.51)"/><rect class="cls-1" x="76.49" y="33.42" width="3.15" height="3.15" transform="translate(-0.31 0.7) rotate(-0.51)"/><rect class="cls-1" x="76.52" y="36.57" width="3.15" height="3.15" transform="translate(-0.34 0.7) rotate(-0.51)"/><rect class="cls-1" x="76.54" y="39.72" width="3.15" height="3.15" transform="translate(-0.36 0.7) rotate(-0.51)"/><rect class="cls-1" x="73.42" y="42.9" width="3.15" height="3.15" transform="translate(-0.39 0.67) rotate(-0.51)"/><rect class="cls-1" x="73.45" y="46.05" width="3.15" height="3.15" transform="translate(-0.42 0.67) rotate(-0.51)"/><rect class="cls-1" x="79.72" y="42.84" width="3.15" height="3.15" transform="translate(-0.39 0.73) rotate(-0.51)"/><rect class="cls-1" x="82.9" y="45.97" width="3.15" height="3.15" transform="translate(-0.42 0.75) rotate(-0.51)"/><rect class="cls-1" x="86.08" y="49.09" width="3.15" height="3.15" transform="translate(-0.45 0.78) rotate(-0.51)"/><rect class="cls-1" x="82.95" y="52.26" width="3.15" height="3.15" transform="translate(-0.48 0.75) rotate(-0.51)"/><rect class="cls-1" x="79.83" y="55.44" width="3.15" height="3.15" transform="translate(-0.5 0.73) rotate(-0.51)"/><path class="cls-1" d="M28,105.22v-7h2v3h3v-3h2v7H33v-3H30v3Z"/><path class="cls-1" d="M36,105.22v-1h5v-1H37v-1H36v-1h1v-1h5v1H38v1h4v1h1v1H42v1Z"/><path class="cls-1" d="M45,105.22v-1h2v-3H46v-1h3v4h2v1Zm2-6v-1h2v1Z"/><path class="cls-1" d="M53,105.22v-1H52v-3h1v-1h5v1h1v2H54v1h4v1Zm1-3h3v-1H54Z"/><path class="cls-1" d="M60,105.22v-5h6v1h1v4H65v-4H62v4Z"/><path class="cls-1" d="M69,102.22v-1h6v1Z"/><path class="cls-1" d="M77,106.22v-1h4v-1H77v-1H76v-3h2v3h3v-3h2v5H82v1Z"/><path class="cls-1" d="M85,105.22v-1H84v-4h2v4h3v-4h2v5Z"/></g></svg>