<svg xmlns="http://www.w3.org/2000/svg" viewBox="0 0 339.16 115.06"><defs><style>.cls-1{fill:#4affff;}</style></defs><title>工作區域 14</title><g id="文字"><path class="cls-1" d="M44.26,110.78v-5.36h1.06v-1.08h1.07v-1.07h3.2v1.07h1.07v1.08h1.07v5.36H49.59v-2.14h-3.2v2.14Zm2.13-3.22h3.2v-2.14H48.52v-1.08H47.46v1.08H46.39Z"/><path class="cls-1" d="M52.45,110.78v-7.51h6.4v1.07h1.07v3.22H58.85v1.08H54.58v2.14Zm2.13-3.22h3.2v-3.22h-3.2Z"/><path class="cls-1" d="M60.64,110.78v-7.51H67v1.07h1.07v3.22H67v1.08H62.78v2.14Zm2.14-3.22H66v-3.22h-3.2Z"/><path class="cls-1" d="M68.84,110.78v-5.36H69.9v-1.08H71v-1.07h3.2v1.07h1.07v1.08H76.3v5.36H74.17v-2.14H71v2.14ZM71,107.56h3.2v-2.14H73.1v-1.08H72v1.08H71Z"/><path class="cls-1" d="M77,110.78v-7.51h6.4v1.07H84.5v3.22H82.36v1.08h1.07v1.07H84.5v1.07H81.3v-1.07H80.23v-1.07H79.16v2.14Zm2.13-3.22H81.3v-1.07h1.06v-2.15h-3.2Z"/><path class="cls-1" d="M85.22,110.78v-7.51h7.47v1.07H87.36v2.15h4.26v1.07H87.36v2.15h5.33v1.07Z"/><path class="cls-1" d="M93.42,110.78v-7.51h2.13v1.07h1.07v1.08h1.06v1.07h1.07v-3.22h2.13v7.51H98.75v-2.14H97.68v-1.08H96.62v-1.07H95.55v4.29Z"/><path class="cls-1" d="M104.81,110.78v-6.44h-2.14v-1.07h6.41v1.07h-2.14v6.44Z"/><path class="cls-1" d="M121.19,110.78v-6.44h-2.13v-1.07h6.4v1.07h-2.13v6.44Z"/><path class="cls-1" d="M126.19,110.78v-7.51h7.46v1.07h-5.33v2.15h4.27v1.07h-4.27v2.15h5.33v1.07Z"/><path class="cls-1" d="M134.38,110.78v-7.51h2.13v1.07h1.07v1.08h1.07v-1.08h1.06v-1.07h2.14v7.51h-2.14v-4.29h-1.06v2.15h-1.07v-2.15h-1.07v4.29Z"/><path class="cls-1" d="M142.57,110.78v-7.51H149v1.07H150v3.22H149v1.08h-4.26v2.14Zm2.14-3.22h3.2v-3.22h-3.2Z"/><path class="cls-1" d="M150.77,110.78v-7.51h7.46v1.07H152.9v2.15h4.27v1.07H152.9v2.15h5.33v1.07Z"/><path class="cls-1" d="M159,110.78v-7.51h6.4v1.07h1.07v3.22h-2.14v1.08h1.07v1.07h1.07v1.07h-3.2v-1.07h-1.07v-1.07h-1.07v2.14Zm2.13-3.22h2.14v-1.07h1.06v-2.15h-3.2Z"/><path class="cls-1" d="M167.15,110.78v-5.36h1.07v-1.08h1.07v-1.07h3.2v1.07h1.06v1.08h1.07v5.36h-2.13v-2.14h-3.2v2.14Zm2.14-3.22h3.2v-2.14h-1.07v-1.08h-1.07v1.08h-1.06Z"/><path class="cls-1" d="M178.55,110.78v-6.44h-2.14v-1.07h6.4v1.07h-2.13v6.44Z"/><path class="cls-1" d="M184.6,110.78v-1.07h-1.06v-6.44h2.13v6.44h3.2v-6.44H191v6.44h-1.07v1.07Z"/><path class="cls-1" d="M191.73,110.78v-7.51h6.4v1.07h1.07v3.22h-2.14v1.08h1.07v1.07h1.07v1.07H196v-1.07h-1.07v-1.07h-1.07v2.14Zm2.13-3.22H196v-1.07h1.06v-2.15h-3.2Z"/><path class="cls-1" d="M199.92,110.78v-7.51h7.47v1.07h-5.33v2.15h4.26v1.07h-4.26v2.15h5.33v1.07Z"/><path class="cls-1" d="M216.31,110.78v-7.51h5.33v1.07h1.07v1.08h1.07v3.22h-1.07v1.07h-1.07v1.07Zm2.13-1.07h2.14v-1.07h1.06v-3.22h-1.06v-1.08h-2.14Z"/><path class="cls-1" d="M225.57,110.78v-1.07h2.13v-5.37h-2.13v-1.07H232v1.07h-2.13v5.37H232v1.07Z"/><path class="cls-1" d="M232.7,110.78v-7.51h7.46v1.07h-5.33v2.15h4.27v1.07h-4.27v3.22Z"/><path class="cls-1" d="M240.89,110.78v-7.51h7.47v1.07H243v2.15h4.27v1.07H243v3.22Z"/><path class="cls-1" d="M249.08,110.78v-7.51h7.47v1.07h-5.33v2.15h4.26v1.07h-4.26v2.15h5.33v1.07Z"/><path class="cls-1" d="M257.28,110.78v-7.51h6.4v1.07h1.06v3.22h-2.13v1.08h1.07v1.07h1.06v1.07h-3.2v-1.07h-1.06v-1.07h-1.07v2.14Zm2.13-3.22h2.13v-1.07h1.07v-2.15h-3.2Z"/><path class="cls-1" d="M265.47,110.78v-5.36h1.06v-1.08h1.07v-1.07h3.2v1.07h1.07v1.08h1.07v5.36H270.8v-2.14h-3.2v2.14Zm2.13-3.22h3.2v-2.14h-1.06v-1.08h-1.07v1.08H267.6Z"/><path class="cls-1" d="M273.66,110.78v-7.51h2.14v1.07h1.06v1.08h1.07v1.07H279v-3.22h2.13v7.51H279v-2.14h-1.07v-1.08h-1.07v-1.07H275.8v4.29Z"/><path class="cls-1" d="M284,110.78v-1.07h-1.07v-1.07h-1.07v-3.22h1.07v-1.08H284v-1.07h4.26v1.07h1.07v1.08h-2.13v-1.08h-2.14v1.08H284v3.22h1.06v1.07h2.14v-1.07h2.13v1.07h-1.07v1.07Z"/><path class="cls-1" d="M290.05,110.78v-7.51h7.47v1.07h-5.34v2.15h4.27v1.07h-4.27v2.15h5.34v1.07Z"/><path class="cls-1" d="M201.05,36.65c0,1.72-.1,3,0,4.32.24,2.7-1,3.58-3.79,3.52-7.1-.14-14.2,0-21.29,0-7.48,0-7.48,0-6.61-8.23,2.88,0,5.88,0,8.88,0,2.53.06,3.7-.94,3.53-3.42-.14-1.91.2-3.86-.14-5.72-.19-1-1.35-1.84-2.07-2.76-.61.85-1.52,1.64-1.74,2.57a31.19,31.19,0,0,0-.35,5H169.3V16.34h79.92v15.6H241a35.58,35.58,0,0,0-.08-5.41c-.13-.79-1.13-1.46-1.74-2.18-.77.72-2.12,1.37-2.21,2.16a25.19,25.19,0,0,0,.08,7.46c.17.9,2,2,3.19,2.15a82.75,82.75,0,0,0,9,.1v8H218V36.53l9.65-.6c1.91-11.28-.49-13.59-11.67-11.6-.85.16-1.55,1.07-2.32,1.63.81.69,1.52,1.77,2.44,2,1.63.34,3.48-.19,5,.24,1.32.37,2.38,1.61,4,2.79A11.48,11.48,0,0,1,223.1,32c-9.17.75-9.16.75-9.57,9.75a22.37,22.37,0,0,1-.36,2.35c-1.3.11-2.49.24-3.68.29s-2.44,0-4.49,0c0-2.82-.19-5.41.05-7.95.29-3.25-.93-4.41-4.42-4.41-2,0-5.84,1.82-5.9-1.78-.07-4.08,4-1.55,6.13-2.21.71-.22,1.64.11,2.27-.19s1.79-1.3,1.67-1.62c-.3-.78-1.18-1.86-1.88-1.9a78.44,78.44,0,0,0-10.17,0c-.84.05-1.71,1.23-2.34,2.05-.31.38-.11,1.14-.11,1.72.1,9.26-.69,8.1,7.89,8.14A26.94,26.94,0,0,1,201.05,36.65Z"/><path class="cls-1" d="M249.29,48.48v7.21c-2.69,1.48-8,2.51-.51,5.23,1.07.39.65,4.52,1,7.62a49,49,0,0,0-5.92.07c-.9.11-2.33.85-2.4,1.43-.12.92.42,2.51,1.17,2.85,7.12,3.24,7.58,8.92,6.58,15.22-6.3,1.31-7,1.11-9.34-2.77-12.27,4.71-13.36,4.71-23-.19-1.51,5-5.51,3.62-9.14,3.34-2-7.16-.32-11.28,5.68-15.2.94-.62,1.36-2,2-3a12.63,12.63,0,0,0-3.22-1.7,27.91,27.91,0,0,0-5-.07c.53-3.41-2.77-7.47,3.29-8.58-.27-1.12-.35-3.09-.86-3.21-4.47-1-2.47-4.25-2.34-6.44,0-.77,2.85-2,4.42-2,11.1-.17,22.2-.1,33.29-.08C246.4,48.22,247.74,48.38,249.29,48.48ZM233.45,75l-.83-.41c0-.29,0-.58,0-.87.25-3,.06-5.31-4.4-5.29s-4,2.46-4,5.15c0,.87,0,1.74,0,2.62.08,4,2.36,5.84,6,4.14C231.87,79.57,232.43,76.82,233.45,75Zm-5-14.63v0a37.17,37.17,0,0,0,5.49-.08c1-.15,1.77-1.11,2.64-1.71-.78-.67-1.53-1.88-2.35-1.92-4-.21-7.93-.19-11.9,0-.76,0-1.48,1.09-2.21,1.67.79.68,1.51,1.81,2.39,1.95A39.19,39.19,0,0,0,228.43,60.35Z"/><path class="cls-1" d="M292.08,42V12.47c4.33,0,8.45.16,12.54-.09,1.39-.09,2.71-1.23,4.07-1.89-1.41-.76-2.77-2.07-4.23-2.19-4-.3-7.95-.1-12.27-.1V0H333.8V8.19c-4.18,0-8.45-.18-12.68.11-1.27.09-2.46,1.47-3.69,2.26,1.22.63,2.42,1.74,3.67,1.82,4.12.23,8.27.08,12.75.08V42Zm20.59-8.38v0c3.53,0,7.07.14,10.58-.1.8-.06,1.51-1.45,2.27-2.23-.74-.6-1.48-1.71-2.23-1.72-6.75-.14-13.5-.16-20.25,0-.87,0-1.71,1.27-2.56,1.94.84.71,1.64,2,2.54,2C306.22,33.74,309.45,33.59,312.67,33.59ZM304.56,26l4.12-3.09c-1.33-.61-2.68-1.75-4-1.69s-2.8,1.25-4.19,1.95Zm17,0,4-2.87c-1.27-.68-2.57-1.94-3.81-1.89-1.45.05-2.85,1.25-4.28,1.95Z"/><path class="cls-1" d="M122.67,28c4.49,0,8.63-.13,12.75,0,3,.13,4.15-1,4-3.86a80.9,80.9,0,0,1,0-8.81c.14-2.83-1.36-3.46-4-3.44s-4.6.31-4.42,3.51c.16,2.75,0,5.5,0,8.5h-8.15V4.21h41.82V12c-4,0-8.08.18-12.15-.06-3.52-.2-4.46,1.18-4.49,4.36C147.91,28,147.81,28,159.88,28.08c1.51,0,3,.12,4.75.19.13,1.43.17,2.56.35,3.68.54,3.42-.8,4.8-4.56,4.52s-7.66-.06-11.88-.06c-.31,2.74-.58,5.14-.87,7.77h-7.41c-.22-.24-.56-.44-.6-.68-1.13-7.1-1.12-7.1-9-7.1h-8Z"/><path class="cls-1" d="M131,48.57c0,9.28.13,18.25-.07,27.2-.08,3.61,1.15,5,5.05,4.89,8-.22,16-.08,24.08-.06,1.5,0,3,.14,4.7.23v7.9H147.22c-4.63,0-9.27.09-13.9,0-6.43-.15-10.68-4.15-10.83-10.28-.14-5.89-.22-11.78,0-17.66.13-3.32-1.11-4.35-4.51-4.31-10.65.12-21.31,0-32-.06a6.37,6.37,0,0,1-1.25-.32v-7.5Z"/><path class="cls-1" d="M169.24,88.73V80.59c3,0,5.87-.09,8.73,0s3.87-.82,3.83-3.57c-.18-9.93.91-8.41-8.36-8.52-1.22,0-2.44,0-4.07,0V60.37a79.22,79.22,0,0,0,8.16-.08c1.41-.14,2.74-1.11,4.1-1.7-1.42-.7-2.78-1.81-4.27-2a65,65,0,0,0-8.07-.09v-8h21a58.92,58.92,0,0,1,0,7c-.49,4,1.33,5.29,5.3,4.87a70.66,70.66,0,0,1,7.17-.05v8.16c-2.87,0-5.61.11-8.34,0-2.93-.14-4.34.87-4.1,3.81.16,1.9-.19,3.85.12,5.72.14.88,1.29,1.62,2,2.42.67-.72,1.74-1.35,1.92-2.16a36.05,36.05,0,0,0,.35-5.51h7.75c2.55,8.93-1.94,16.87-13.19,16C182.79,88.35,176.28,88.73,169.24,88.73Z"/><path class="cls-1" d="M0,41.32V33.06c11.33-3.18,16.13-13,24.2-19.22l-.59-1.45H.12V4c11,0,21.73-.26,32.49.12a5.7,5.7,0,0,1,3.68,9.74C28.22,22,20,30,11.32,37.47,8.8,39.65,4.45,39.89,0,41.32Z"/><path class="cls-1" d="M333.84,88.47H321.7c.46-3.17-2.51-6.9,2.93-8.42.61-.17,1-2,1-3.08.1-5.59-.09-11.18.11-16.76.1-3-1.32-3.77-4.15-3.73-6.93.1-13.85,0-21,0v-8h33.25Z"/><path class="cls-1" d="M46.53,56.51v-8h33.2V88.36H67.8c.09-3.15-2.47-6.88,3-8.49.54-.16.7-2.08.71-3.19.07-5.29-.15-10.59.09-15.87.15-3.25-.94-4.46-4.43-4.36C60.45,56.64,53.68,56.51,46.53,56.51Z"/><path class="cls-1" d="M80.5,4v8c-6.37,0-12.52-.33-18.61.14a18,18,0,0,0-8,3.16c-9,6-13.37,14.14-11.2,24.87a17.8,17.8,0,0,1-.17,3.87h-8c0-6.59-.16-13.15.11-19.69A8,8,0,0,1,37,19.74C41.36,15.34,45.75,11,50.44,7A11.87,11.87,0,0,1,57,4.14C64.71,3.79,72.41,4,80.5,4Z"/><path class="cls-1" d="M.07,88.46v-40h29v8c-5,0-10.14.27-15.27-.08-4.51-.3-5.82,1.23-5.67,5.46.32,8.76.1,17.55.1,26.58Z"/><path class="cls-1" d="M262.38,88.57h-8.12V48.48h29v8.05c-5.33,0-10.7.22-16-.07-4-.21-5,1.24-4.88,4.82C262.54,70.22,262.38,79.16,262.38,88.57Z"/><path class="cls-1" d="M12.58,88.23V81a16.43,16.43,0,0,1,3.64-.36c6.52.88,11.62-1.09,15.59-6.2,4.88-6.26,11.42-9,19.72-8,3.62.42,7.34.07,11.4.07v8.16c-5,0-10-.28-15,.12C45.54,75,43.2,76.28,41,77.39a9.21,9.21,0,0,0-2.92,2.78C31.81,88.52,23.07,90.09,12.58,88.23Z"/><path class="cls-1" d="M85,28.36h7.45c1.29,3.15-1.61,8.07,5.24,8,11.06-.1,11.06.2,12.58-7.69.11-.1.22-.26.35-.28,7.5-1.21,8.82,0,7.6,7.12-.91,5.26-4.67,8.57-10.37,8.88-3.07.17-6.16.06-9.24.06C87,44.44,82.94,39.75,85,28.36Z"/><path class="cls-1" d="M266.57,79.9V71.82c7.52,1.35,10.42-5.09,15.19-8.64,5.73-4.26,6.49-10,5.67-16.64h8.3c.95,7.65,1.29,14.81-5.47,20.32A75.93,75.93,0,0,0,282.08,75C278,79.59,273,81.08,266.57,79.9Z"/><path class="cls-1" d="M119,65.65c-7.21,6.83-14.19,13.66-21.43,20.22-3.49,3.16-8,3.33-12.82,2.53V80.5c6.07,1.58,9.07-2.51,12.5-5.8,5.19-5,10.36-10,15.75-15.16Z"/><path class="cls-1" d="M41.72,48.56c1.21,6.49-.67,11.12-5.21,15A119.26,119.26,0,0,0,27.66,72c-4.06,4.22-9,5.36-15,4.23V69C23,67.15,33,57.59,33.87,48.56Z"/><path class="cls-1" d="M254.06,44.45V36.23c6.34,0,12.45,0,18.56,0s6.13,0,6.5-6a16,16,0,0,1,.38-1.92h7.61c2,11.62-1.94,16.1-13.72,16.11Z"/><path class="cls-1" d="M118.19,16.42c.08,1.56.08,2.72.23,3.87.39,3-.87,4.09-4.14,4-9.68-.17-19.37-.06-29.45-.06V16.42Z"/><path class="cls-1" d="M118.15,0V7.85H84.75V0Z"/><path class="cls-1" d="M287.41,4v7.48h-33.2V4Z"/><path class="cls-1" d="M287.42,16.34v7.57H254.13V16.34Z"/><path class="cls-1" d="M51.14,23.15l6.3-5.46c8.35,3.84,11.55,14.88,23,14.76V40C65.7,42.33,61.32,29.24,51.14,23.15Z"/><path class="cls-1" d="M224,3.92v7.49H194.8V3.92Z"/><path class="cls-1" d="M317,79.66c-11.38,3.19-17.28-4-23.6-11.35l5.44-5.86c5.68,4,9,12.32,18.16,8.62Z"/><path class="cls-1" d="M249.31,4v7.51h-20.7V4Z"/><path class="cls-1" d="M190.07,3.94v7.54H169.33V3.94Z"/><path class="cls-1" d="M47.05,79.46l15.89,1.68v7.47c-7.43-.3-15.35,2.25-21.57-5.13l5.14-5.34Z"/><polygon class="cls-1" points="37.36 103.14 37.36 111.85 2.18 107.5 37.36 103.14"/><polygon class="cls-1" points="303.98 103.14 303.98 111.85 339.15 107.5 303.98 103.14"/></g></svg>