<svg xmlns="http://www.w3.org/2000/svg" viewBox="0 0 31.54 294.54" width="150" height="16"><defs><style>.cls-1{fill:#4affff;}</style></defs><title>工作區域 16</title><g id="文字"><path class="cls-1" d="M17.52,232.25v-.87h-.88v-.88h-.87v-2.62h.87V227h.88v-.87h2.62V227H21v.88h.87v2.62H21v.88h-.88v.87Zm.87-.87h1.75v-3.5h-.87V227H17.52v3.5h.87Z"/><path class="cls-1" d="M5.72,174.7v-.87H7.47v-3.5H6.59v-.88h.88v-.87H9.22v5.25H11v.87Z"/><path class="cls-1" d="M13.59,174.7v-.87h-.87V173h-.88v-2.62h.88v-.88h.87v-.87h2.63v.87h.87v.88H18V173h-.88v.88h-.87v.87Zm.88-.87h1.75v-3.5h-.88v-.88H13.59V173h.88Z"/><path class="cls-1" d="M4.84,115.51v-1.75h.88v-.87h.87V112H8.34v-.87h.88v-.88H6.59v.88H4.84v-.88h.88v-.87h4.37v.87H11V112h-.88v.88H9.22v.87H7.47v.88H11v.87Z"/><path class="cls-1" d="M13.59,115.51v-.87h-.87v-.88h-.88v-2.62h.88v-.88h.87v-.87h2.63v.87h.87v.88H18v2.62h-.88v.88h-.87v.87Zm.88-.87h1.75v-3.5h-.88v-.88H13.59v3.5h.88Z"/><path class="cls-1" d="M5.72,62.82v-.88H4.84v-.87H6.59v.87H9.22V60.19H6.59v-.87h.88v-.88h.87v-.87H5.72v-.88H11v.88h-.88v.87H9.22v.88h.87v.87H11v1.75h-.88v.88Z"/><path class="cls-1" d="M13.59,62.82v-.88h-.87v-.87h-.88V58.44h.88v-.87h.87v-.88h2.63v.88h.87v.87H18v2.63h-.88v.87h-.87v.88Zm.88-.88h1.75v-3.5h-.88v-.87H13.59v3.5h.88Z"/><path class="cls-1" d="M8.34,6.12V4.38H4.84V2.62h.88V1.75h.87V.88h.88V0h2.62V3.5H11v.88h-.88V6.12ZM6.59,3.5H8.34V1.75H7.47v.87H6.59Z"/><path class="cls-1" d="M13.59,6.12V5.25h-.87V4.38h-.88V1.75h.88V.88h.87V0h2.63V.88h.87v.87H18V4.38h-.88v.87h-.87v.87Zm.88-.87h1.75V1.75h-.88V.88H13.59v3.5h.88Z"/><rect class="cls-1" x="23.87" y="2.14" width="7.67" height="2.36" transform="translate(55.41 6.65) rotate(-180)"/><rect class="cls-1" x="27.71" y="11.06" width="3.83" height="2.36" transform="translate(59.24 24.49) rotate(-180)"/><rect class="cls-1" x="27.71" y="19.98" width="3.83" height="2.36" transform="translate(59.24 42.32) rotate(-180)"/><rect class="cls-1" x="27.71" y="28.9" width="3.83" height="2.36" transform="translate(59.24 60.15) rotate(-180)"/><rect class="cls-1" x="27.71" y="37.81" width="3.83" height="2.36" transform="translate(59.24 77.99) rotate(-180)"/><rect class="cls-1" x="25.36" y="13.43" width="2.35" height="2.35" transform="translate(53.06 29.2) rotate(-180)"/><rect class="cls-1" x="25.36" y="22.34" width="2.35" height="2.35" transform="translate(53.06 47.03) rotate(-180)"/><rect class="cls-1" x="25.36" y="31.26" width="2.35" height="2.35" transform="translate(53.06 64.87) rotate(-180)"/><rect class="cls-1" x="25.36" y="40.18" width="2.35" height="2.35" transform="translate(53.06 82.7) rotate(-180)"/><rect class="cls-1" x="27.71" y="49.09" width="3.83" height="2.36" transform="translate(59.24 100.55) rotate(-180)"/><rect class="cls-1" x="25.36" y="51.46" width="2.35" height="2.35" transform="translate(53.06 105.26) rotate(-180)"/><rect class="cls-1" x="23.87" y="58.84" width="7.67" height="2.36" transform="translate(55.41 120.04) rotate(-180)"/><rect class="cls-1" x="27.71" y="67.75" width="3.83" height="2.36" transform="translate(59.24 137.87) rotate(-180)"/><rect class="cls-1" x="27.71" y="76.67" width="3.83" height="2.36" transform="translate(59.24 155.71) rotate(-180)"/><rect class="cls-1" x="27.71" y="85.59" width="3.83" height="2.36" transform="translate(59.24 173.54) rotate(-180)"/><rect class="cls-1" x="27.71" y="94.51" width="3.83" height="2.36" transform="translate(59.24 191.37) rotate(-180)"/><rect class="cls-1" x="25.36" y="70.12" width="2.35" height="2.35" transform="translate(53.06 142.59) rotate(-180)"/><rect class="cls-1" x="25.36" y="79.04" width="2.35" height="2.35" transform="translate(53.06 160.42) rotate(-180)"/><rect class="cls-1" x="25.36" y="87.95" width="2.35" height="2.35" transform="translate(53.06 178.25) rotate(-180)"/><rect class="cls-1" x="25.36" y="96.87" width="2.35" height="2.35" transform="translate(53.06 196.09) rotate(-180)"/><rect class="cls-1" x="27.71" y="105.79" width="3.83" height="2.36" transform="translate(59.24 213.93) rotate(-180)"/><rect class="cls-1" x="25.36" y="108.15" width="2.35" height="2.35" transform="translate(53.06 218.65) rotate(-180)"/><rect class="cls-1" x="23.87" y="115.53" width="7.67" height="2.36" transform="translate(55.41 233.43) rotate(-180)"/><rect class="cls-1" x="27.71" y="124.45" width="3.83" height="2.36" transform="translate(59.24 251.26) rotate(-180)"/><rect class="cls-1" x="27.71" y="133.36" width="3.83" height="2.36" transform="translate(59.24 269.09) rotate(-180)"/><rect class="cls-1" x="27.71" y="142.28" width="3.83" height="2.36" transform="translate(59.24 286.93) rotate(-180)"/><rect class="cls-1" x="27.71" y="151.2" width="3.83" height="2.36" transform="translate(59.24 304.76) rotate(-180)"/><rect class="cls-1" x="25.36" y="126.81" width="2.35" height="2.35" transform="translate(53.06 255.97) rotate(-180)"/><rect class="cls-1" x="25.36" y="135.73" width="2.35" height="2.35" transform="translate(53.06 273.81) rotate(-180)"/><rect class="cls-1" x="25.36" y="144.65" width="2.35" height="2.35" transform="translate(53.06 291.64) rotate(-180)"/><rect class="cls-1" x="25.36" y="153.56" width="2.35" height="2.35" transform="translate(53.06 309.47) rotate(-180)"/><rect class="cls-1" x="27.71" y="162.48" width="3.83" height="2.36" transform="translate(59.24 327.32) rotate(-180)"/><rect class="cls-1" x="25.36" y="164.84" width="2.35" height="2.35" transform="translate(53.06 332.04) rotate(-180)"/><rect class="cls-1" x="23.87" y="172.22" width="7.67" height="2.36" transform="translate(55.41 346.81) rotate(-180)"/><rect class="cls-1" x="23.87" y="230.44" width="7.67" height="2.36" transform="translate(55.41 463.25) rotate(-180)"/><rect class="cls-1" x="27.71" y="181.14" width="3.83" height="2.36" transform="translate(59.24 364.65) rotate(-180)"/><rect class="cls-1" x="27.71" y="190.06" width="3.83" height="2.36" transform="translate(59.24 382.48) rotate(-180)"/><rect class="cls-1" x="27.71" y="198.97" width="3.83" height="2.36" transform="translate(59.24 400.31) rotate(-180)"/><rect class="cls-1" x="27.71" y="207.89" width="3.83" height="2.36" transform="translate(59.24 418.15) rotate(-180)"/><rect class="cls-1" x="25.36" y="183.51" width="2.35" height="2.35" transform="translate(53.06 369.36) rotate(-180)"/><rect class="cls-1" x="25.36" y="192.42" width="2.35" height="2.35" transform="translate(53.06 387.19) rotate(-180)"/><rect class="cls-1" x="25.36" y="201.34" width="2.35" height="2.35" transform="translate(53.06 405.03) rotate(-180)"/><rect class="cls-1" x="25.36" y="210.26" width="2.35" height="2.35" transform="translate(53.06 422.86) rotate(-180)"/><rect class="cls-1" x="27.71" y="219.17" width="3.83" height="2.36" transform="translate(59.24 440.71) rotate(-180)"/><rect class="cls-1" x="25.36" y="221.54" width="2.35" height="2.35" transform="translate(53.06 445.42) rotate(-180)"/><path class="cls-1" d="M.88,288.43v-.88H6.12v.88Z"/><path class="cls-1" d="M7.88,291.05v-.87H9.62v-3.5H8.75v-.88h.87v-.87h1.76v5.25h1.74v.87Z"/><path class="cls-1" d="M15.75,291.05v-.87h-.87v-.88H14v-2.62h.88v-.88h.87v-.87h2.63v.87h.87v.88h.87v2.62h-.87v.88h-.87v.87Zm.87-.87h1.76v-3.5H17.5v-.88H15.75v3.5h.87Z"/><rect class="cls-1" x="23.87" y="288.06" width="7.67" height="2.36" transform="translate(55.41 578.48) rotate(-180)"/><rect class="cls-1" x="27.71" y="238.76" width="3.83" height="2.36" transform="translate(59.24 479.87) rotate(-180)"/><rect class="cls-1" x="27.71" y="247.67" width="3.83" height="2.36" transform="translate(59.24 497.71) rotate(-180)"/><rect class="cls-1" x="27.71" y="256.59" width="3.83" height="2.36" transform="translate(59.24 515.54) rotate(-180)"/><rect class="cls-1" x="27.71" y="265.51" width="3.83" height="2.36" transform="translate(59.24 533.38) rotate(-180)"/><rect class="cls-1" x="25.36" y="241.12" width="2.35" height="2.35" transform="translate(53.06 484.59) rotate(-180)"/><rect class="cls-1" x="25.36" y="250.04" width="2.35" height="2.35" transform="translate(53.06 502.42) rotate(-180)"/><rect class="cls-1" x="25.36" y="258.95" width="2.35" height="2.35" transform="translate(53.06 520.26) rotate(-180)"/><rect class="cls-1" x="25.36" y="267.87" width="2.35" height="2.35" transform="translate(53.06 538.09) rotate(-180)"/><rect class="cls-1" x="27.71" y="276.79" width="3.83" height="2.36" transform="translate(59.24 555.94) rotate(-180)"/><rect class="cls-1" x="25.36" y="279.15" width="2.35" height="2.35" transform="translate(53.06 560.65) rotate(-180)"/></g></svg>